<svg xmlns="http://www.w3.org/2000/svg" fill="none" viewBox="0 0 25 24" height="24" width="25">
<g clip-path="url(#clip0_585_9794)">
<path stroke-linejoin="round" stroke-linecap="round" stroke-miterlimit="10" stroke="#1A1A1A" d="M12.873 8.298L16.0987 3.07959C16.4257 2.5425 17.1328 2.37061 17.6699 2.69765C18.207 3.0247 18.3789 3.73176 18.0518 4.26886L14.6284 9.89498C14.5675 9.99501 14.5992 10.1255 14.6993 10.1864C14.7994 10.2474 14.9298 10.2157 14.9908 10.1156L19.1222 3.32671C19.4492 2.78962 20.1563 2.61773 20.6934 2.94478C21.2305 3.27182 21.4024 3.97889 21.0753 4.51598L16.9439 11.3048C16.883 11.4049 16.9147 11.5354 17.0148 11.5963C17.1149 11.6572 17.2454 11.6255 17.3062 11.5254L20.7016 5.94529C21.0287 5.4082 21.7357 5.23631 22.2728 5.56335C22.8099 5.8904 22.9818 6.59746 22.6548 7.13456L19.2594 12.7147C19.1985 12.8148 19.2302 12.9453 19.3303 13.0062L19.4442 13.0755C19.5442 13.1364 19.6747 13.1047 19.7356 13.0046L21.8755 9.48637C22.1479 9.03909 22.7167 8.85361 23.1883 9.08156C23.7307 9.34378 23.919 10.0146 23.613 10.5171L18.0579 19.6402C17.5973 20.3967 16.5234 21.2113 15.693 21.1797C15.2589 21.1632 14.8499 21.3829 14.624 21.754L13.8646 22.9864"></path>
<path stroke-linejoin="round" stroke-linecap="round" stroke-miterlimit="10" stroke="#1A1A1A" d="M13.5908 13.3625C13.5908 13.3625 15.2436 15.5962 13.6519 17.8499"></path>
<path stroke-linejoin="round" stroke-linecap="round" stroke-miterlimit="10" stroke="#1A1A1A" d="M8.82725 4.9034C8.56227 6.97069 12.2325 9.08494 12.6442 10.1506C13.0463 11.1913 10.8671 11.9672 10.8671 11.9672C10.8671 11.9672 10.755 12.8702 11.248 13.1578C11.6858 13.4131 11.7022 13.66 11.6327 13.8271C11.5825 13.9477 11.4777 14.037 11.354 14.0787L9.37827 14.7435C9.16728 14.8144 9.01231 14.9955 8.97472 15.2149C8.92981 15.4769 9.06116 15.7376 9.29848 15.8574L10.957 16.6949C11.1057 16.77 11.1994 16.9223 11.1994 17.0888C11.1994 17.2303 11.132 17.3634 11.0172 17.4461C10.6592 17.7037 9.9148 18.1016 10.0151 18.252C10.1432 18.4441 10.8848 20.611 8.82725 21.0894C7.07338 21.4972 4.83163 19.1165 4.00977 23.2815"></path>
<path stroke-linejoin="round" stroke-linecap="round" stroke-miterlimit="10" stroke="#1A1A1A" d="M6.87273 20.8897L2.30078 19.9476"></path>
<path stroke-linejoin="round" stroke-linecap="round" stroke-miterlimit="10" stroke="#1A1A1A" d="M11.1374 0.674294C11.1374 0.674294 12.4497 3.49828 10.562 6.32226"></path>
<path stroke-linejoin="round" stroke-linecap="round" stroke-miterlimit="10" stroke="#1A1A1A" d="M9.65059 1.81481C9.65059 1.81481 9.38443 8.36395 1.65723 10.6367"></path>
</g>
<defs>
<clipPath id="clip0_585_9794">
<rect transform="translate(0.666504)" fill="white" height="24" width="24"></rect>
</clipPath>
</defs>
</svg>
